<svg width="193" height="90" viewBox="0 0 193 90" fill="none" xmlns="http://www.w3.org/2000/svg">
<g clip-path="url(#clip0_139_274)">
<path fill-rule="evenodd" clip-rule="evenodd" d="M20 45C20 31.1929 31.1929 20 45 20C58.8071 20 70 31.1929 70 45C70 58.8071 58.8071 70 45 70C31.1929 70 20 58.8071 20 45Z" fill="#01E5B4"/>
<path d="M39.1835 47.0921C39.1835 56.8806 41.7391 61.7025 46.1753 61.7025C49.5507 61.7025 49.8399 60.3523 49.8399 57.8931V48.5385H46.7539V47.4777H60.6412V48.5385H58.7605V62.1365H58.0374C57.4587 61.3167 56.9282 60.931 55.578 60.931C54.7987 60.931 53.7439 61.2144 52.4866 61.5523C50.6322 62.0504 48.3378 62.6669 45.8378 62.6669C35.6152 62.6669 29.3467 57.2663 29.3467 45.7419C29.3467 34.0727 36.0974 27.9006 45.9824 27.9006C49.1562 27.9006 51.3643 28.4993 52.9855 28.9389C53.9262 29.1939 54.6693 29.3954 55.2889 29.3954C56.0603 29.3954 56.2532 29.0579 56.5907 28.431H57.1212L57.507 38.8947H56.6389C53.9387 33.4941 50.8045 28.865 46.5612 28.865C41.7874 28.865 39.1835 33.3012 39.1835 43.2827V47.0921Z" fill="#111111"/>
<path fill-rule="evenodd" clip-rule="evenodd" d="M45.6775 32.3204C46.2136 32.1306 46.7732 32.0753 47.45 32.0961C48.1773 32.1185 48.9763 32.3216 49.6719 32.5978C50.3582 32.8702 51.0234 33.2454 51.4436 33.6656C51.7044 33.9263 51.7044 34.3491 51.4436 34.6098C51.1829 34.8705 50.7602 34.8705 50.4994 34.6098C50.2615 34.3719 49.7848 34.0794 49.1792 33.8389C48.5827 33.6021 47.9396 33.4471 47.409 33.4308C46.8275 33.4129 46.4484 33.464 46.1232 33.5792C45.794 33.6956 45.4696 33.8952 45.0192 34.2536C44.8696 34.3728 44.6477 34.6287 44.3944 35.0415C44.1475 35.4439 43.8923 35.9601 43.6617 36.5632C43.2002 37.7712 42.8517 39.2921 42.8517 40.8929C42.8517 42.5879 42.9465 44.1752 43.3921 45.361C43.6107 45.9425 43.9021 46.3942 44.2794 46.7146C44.6502 47.0296 45.1425 47.2504 45.825 47.3121C46.3298 47.3579 46.8465 47.0671 47.4044 46.3177C47.9538 45.5796 48.4259 44.5463 48.8463 43.4704C49.0386 42.9783 49.2154 42.4898 49.3829 42.0275C49.3967 41.9896 49.4104 41.9519 49.424 41.9144C49.6015 41.4248 49.7711 40.9598 49.9323 40.5758C50.085 40.2123 50.2617 39.8405 50.4729 39.5919C50.5759 39.4707 50.76 39.2895 51.0359 39.2272C51.3694 39.1517 51.6521 39.2854 51.8359 39.4585C52.0138 39.6262 52.1163 39.8513 52.1802 40.0233C52.2517 40.2145 52.3109 40.4399 52.3615 40.6843C52.4632 41.175 52.544 41.8081 52.6075 42.5388C52.7346 44.0042 52.7965 45.9265 52.7957 48.0233C52.7954 48.4215 52.7932 48.8265 52.7884 49.2365C53.6665 49.069 54.3561 48.8781 54.804 48.6438C56.7715 47.6138 56.9734 45.67 56.8361 44.8558C56.7746 44.4923 57.0196 44.1477 57.3832 44.0863C57.7467 44.025 58.0913 44.27 58.1527 44.6335C58.3507 45.8067 58.07 48.4413 55.4232 49.8267C54.7559 50.176 53.8088 50.4127 52.7648 50.5988C52.6838 54.1275 52.4417 57.8598 52.0388 60.6538L52.0346 60.6831L52.0277 60.7121C51.8379 61.5138 51.3657 62.709 50.5475 63.7596C49.7246 64.8163 48.5111 65.775 46.8467 65.964C45.1584 66.1556 43.7757 65.4108 42.7713 64.4829C41.7721 63.56 41.0882 62.4065 40.7551 61.6094L40.7445 61.5842L40.7361 61.5581C40.4365 60.6358 40.0606 59.1179 39.8937 57.5223C39.7292 55.9504 39.7541 54.1879 40.3559 52.8517C40.8106 51.8419 41.9336 51.2533 43.1159 50.8631C44.3402 50.459 45.849 50.1992 47.3594 49.9894C48.0315 49.8958 48.6938 49.8135 49.34 49.7331C50.0671 49.6427 50.7736 49.5548 51.4502 49.4567C51.4567 48.9715 51.4602 48.4925 51.4604 48.0229C51.4611 45.9463 51.3996 44.0663 51.2771 42.6542C51.2284 42.0921 51.1709 41.6144 51.1059 41.2327C50.9759 41.5542 50.8359 41.9377 50.6794 42.3694C50.6657 42.4073 50.6517 42.4456 50.6377 42.4844C50.4711 42.9444 50.2888 43.4479 50.09 43.9565C49.6632 45.049 49.1384 46.2246 48.4754 47.115C47.8211 47.9942 46.9096 48.7513 45.7046 48.6421C44.7773 48.5581 44.0173 48.2438 43.415 47.7325C42.819 47.2265 42.4165 46.5606 42.1421 45.8308C41.6023 44.3942 41.5165 42.585 41.5165 40.8929C41.5165 39.1064 41.9034 37.4239 42.4144 36.0866C42.6702 35.4171 42.9607 34.8252 43.2563 34.3432C43.5454 33.8718 43.8634 33.4671 44.1877 33.2089C44.6859 32.8124 45.1452 32.5087 45.6775 32.3204ZM51.5009 40.4454C51.5009 40.4456 51.499 40.4478 51.4948 40.4515C51.4988 40.447 51.5009 40.4452 51.5009 40.4454ZM51.4242 50.8092C50.8004 50.8967 50.1363 50.9796 49.4671 51.0629C48.8198 51.1438 48.1677 51.2252 47.5432 51.3119C46.0413 51.5206 44.6357 51.7677 43.5344 52.1313C42.3909 52.5085 41.7769 52.9481 41.5734 53.3998C41.1223 54.4017 41.0632 55.8683 41.2217 57.3833C41.3761 58.8588 41.7242 60.2708 41.9975 61.1192C42.2752 61.7738 42.8548 62.7421 43.6775 63.5021C44.5054 64.2671 45.5196 64.7706 46.6961 64.6371C47.8961 64.5008 48.815 63.8111 49.4938 62.9394C50.1675 62.0742 50.5644 61.0775 50.7215 60.4327C51.1032 57.7721 51.3388 54.2154 51.4242 50.8092Z" fill="white"/>
<path fill-rule="evenodd" clip-rule="evenodd" d="M45.3342 62.6656C38.1194 62.5375 32.9454 59.6427 30.6582 53.7167H39.6892C40.5546 58.5923 42.5055 61.22 45.3342 61.6444V62.6656Z" fill="#111111"/>
<path fill-rule="evenodd" clip-rule="evenodd" d="M49.3032 48.5417H46.7549V47.4808H49.3032V48.5417Z" fill="#111111"/>
</g>
<path d="M96.176 32.6C96.704 32.6 96.968 32.864 96.968 33.152C96.968 33.632 96.536 33.68 96.104 33.968C95.432 34.424 95.432 35.024 95.432 36.104V38.384C95.432 38.888 95.288 39.152 94.856 39.488C93.392 40.568 91.52 41.264 89.48 41.264C84.08 41.264 80.696 37.736 80.696 32.624C80.696 27.536 84.56 23.576 90.056 23.576C91.496 23.576 93.44 23.84 94.472 24.536C95.216 25.04 95.408 25.856 95.408 26.816V27.008C95.408 27.824 95.384 28.952 94.328 28.952C93.344 28.952 93.056 27.872 92.288 26.96C91.664 26.216 90.848 25.64 89.528 25.64C86.264 25.64 85.04 28.784 85.04 31.928C85.04 34.688 86.24 39.152 89.792 39.152C90.272 39.152 90.68 39.056 90.848 39.008C91.376 38.864 91.448 38.504 91.448 38.12V36.416C91.448 35.072 91.328 34.376 90.248 33.968C89.768 33.776 89.216 33.68 89.216 33.2C89.216 32.84 89.48 32.6 90.08 32.6H96.176ZM105.59 35.024V34.784C105.59 34.688 105.566 34.64 105.518 34.64C105.47 34.64 105.446 34.664 105.374 34.712C104.75 35.096 103.718 35.384 102.878 36.032C102.182 36.536 101.942 37.112 101.942 37.616C101.942 38.456 102.542 39.032 103.43 39.032C104.15 39.032 104.894 38.6 105.278 37.832C105.59 37.184 105.59 36.464 105.59 35.024ZM110.414 39.104C110.774 39.128 111.014 39.272 111.014 39.632C111.014 39.992 110.75 40.328 110.438 40.592C109.91 41.024 109.094 41.264 108.374 41.264C107.342 41.264 106.31 40.736 105.998 39.464C105.974 39.368 105.974 39.32 105.926 39.32C105.902 39.32 105.878 39.344 105.806 39.44C104.846 40.688 103.334 41.264 101.894 41.264C99.9982 41.264 98.1022 40.232 98.1022 38.072C98.1022 36.968 98.6542 35.84 99.8302 35.144C101.006 34.448 102.662 34.016 103.79 33.512C104.558 33.152 105.59 32.552 105.59 31.472C105.59 30.632 105.014 30.056 104.03 30.056C103.478 30.056 102.974 30.224 102.566 30.512C101.246 31.4 101.15 32.768 100.118 32.768C99.3262 32.768 99.0622 32.384 99.0622 31.256C99.0622 30.608 99.1822 29.864 99.5182 29.456C100.31 28.448 102.878 28.208 104.102 28.208C106.574 28.208 109.454 29.336 109.454 32.264C109.454 33.872 109.334 35.312 109.334 36.872C109.334 38.384 109.334 39.056 110.414 39.104ZM126.431 38.84C126.695 38.96 127.175 39.08 127.175 39.512C127.175 39.824 126.935 40.016 126.383 40.16C125.279 40.424 123.935 40.808 123.047 41.12C122.903 41.168 122.663 41.264 122.423 41.264C122.111 41.264 121.799 41.096 121.799 40.448V39.248C121.799 39.176 121.775 39.128 121.727 39.128C121.703 39.128 121.655 39.128 121.607 39.2C120.599 40.64 119.159 41.264 117.695 41.264C116.423 41.264 115.103 40.712 114.335 39.536C113.807 38.696 113.639 37.64 113.639 36.368V33.008C113.639 32.312 113.615 31.808 113.471 31.424C113.327 31.04 113.063 30.824 112.583 30.632C112.319 30.512 111.839 30.392 111.839 29.96C111.839 29.624 112.079 29.456 112.631 29.312C113.735 29.048 115.079 28.664 115.943 28.352C116.207 28.256 116.399 28.208 116.591 28.208C116.903 28.208 117.215 28.376 117.215 29.024V36.296C117.215 37.496 117.767 38.576 119.135 38.576C119.663 38.576 120.239 38.408 120.719 37.928C121.535 37.136 121.799 35.792 121.799 33.344C121.799 32.312 121.775 31.808 121.631 31.424C121.487 31.04 121.223 30.824 120.767 30.632C120.503 30.512 120.023 30.392 120.023 29.96C120.023 29.648 120.263 29.456 120.815 29.312C121.919 29.048 123.287 28.664 124.151 28.352C124.295 28.304 124.535 28.208 124.775 28.208C125.087 28.208 125.399 28.376 125.399 29.024V36.464C125.399 37.16 125.399 37.664 125.543 38.048C125.687 38.432 125.951 38.648 126.431 38.84ZM137.22 28.208C138.612 28.208 139.284 29.288 139.284 30.512C139.284 31.256 138.9 31.976 138.108 31.976C137.364 31.976 136.956 31.328 136.116 31.328C134.148 31.328 133.956 34.52 133.956 36.128C133.956 37.808 134.076 38.312 134.196 38.648C134.316 39.056 134.604 39.416 135.084 39.68C135.396 39.848 135.66 40.016 135.66 40.376C135.66 40.784 135.276 41 134.748 41H129.588C129.06 41 128.652 40.808 128.652 40.376C128.652 40.016 128.916 39.872 129.252 39.68C129.708 39.416 129.996 39.056 130.14 38.648C130.26 38.312 130.356 37.808 130.356 36.128V32.984C130.356 32.312 130.332 31.808 130.212 31.424C130.092 31.04 129.852 30.8 129.324 30.608C129.06 30.512 128.58 30.416 128.58 29.936C128.58 29.624 128.82 29.432 129.372 29.312C130.452 29.072 131.388 28.784 132.324 28.4C132.66 28.256 132.876 28.208 133.068 28.208C133.428 28.208 133.716 28.424 133.716 29V30.824C133.716 30.896 133.74 30.92 133.764 30.92C133.788 30.92 133.812 30.92 133.86 30.824C134.436 29.672 135.684 28.208 137.22 28.208ZM146.536 35.024V34.784C146.536 34.688 146.512 34.64 146.464 34.64C146.416 34.64 146.392 34.664 146.32 34.712C145.696 35.096 144.664 35.384 143.824 36.032C143.128 36.536 142.888 37.112 142.888 37.616C142.888 38.456 143.488 39.032 144.376 39.032C145.096 39.032 145.84 38.6 146.224 37.832C146.536 37.184 146.536 36.464 146.536 35.024ZM151.359 39.104C151.72 39.128 151.96 39.272 151.96 39.632C151.96 39.992 151.696 40.328 151.384 40.592C150.856 41.024 150.04 41.264 149.32 41.264C148.288 41.264 147.256 40.736 146.944 39.464C146.92 39.368 146.92 39.32 146.872 39.32C146.848 39.32 146.824 39.344 146.752 39.44C145.792 40.688 144.28 41.264 142.84 41.264C140.944 41.264 139.048 40.232 139.048 38.072C139.048 36.968 139.6 35.84 140.776 35.144C141.952 34.448 143.608 34.016 144.736 33.512C145.504 33.152 146.536 32.552 146.536 31.472C146.536 30.632 145.96 30.056 144.976 30.056C144.424 30.056 143.92 30.224 143.512 30.512C142.192 31.4 142.096 32.768 141.064 32.768C140.271 32.768 140.008 32.384 140.008 31.256C140.008 30.608 140.128 29.864 140.464 29.456C141.256 28.448 143.824 28.208 145.048 28.208C147.52 28.208 150.4 29.336 150.4 32.264C150.4 33.872 150.28 35.312 150.28 36.872C150.28 38.384 150.28 39.056 151.359 39.104ZM166.093 28.472C166.621 28.472 167.053 28.64 167.053 29.144C167.053 29.384 166.909 29.552 166.693 29.696C166.285 29.984 165.901 30.176 165.277 31.136C164.845 31.76 164.461 32.552 163.932 33.68L160.669 40.88C160.573 41.096 160.429 41.168 160.165 41.168H157.98C157.765 41.168 157.645 41.096 157.549 40.88C156.853 39.176 153.997 32.024 153.997 32.024C153.517 30.896 153.373 30.584 152.965 30.2C152.749 29.984 152.461 29.84 152.197 29.696C151.957 29.576 151.764 29.432 151.764 29.144C151.764 28.808 151.981 28.472 152.677 28.472H157.885C158.389 28.472 158.749 28.688 158.749 29.096C158.749 29.888 157.549 29.6 157.549 30.632C157.549 30.824 157.597 31.064 157.741 31.448L160.021 37.16C160.069 37.28 160.093 37.328 160.165 37.328C160.261 37.328 160.285 37.256 160.333 37.16L161.917 33.392C162.373 32.312 162.493 31.592 162.493 31.136C162.493 29.672 161.197 29.864 161.197 29.168C161.197 28.616 161.677 28.472 162.181 28.472H166.093ZM92.48 49.92C92.936 50.376 93.08 51.432 93.08 52.248C93.08 52.992 93.032 53.904 92.144 53.904C91.4 53.904 91.088 53.208 90.32 52.296C89.624 51.48 88.688 50.496 87.224 50.496C86.096 50.496 84.944 51.144 84.944 52.488C84.944 56.16 93.872 54.528 93.872 60.672C93.872 63.936 90.848 66.264 86.744 66.264C84.32 66.264 81.872 65.544 81.104 64.344C80.696 63.696 80.624 62.904 80.624 62.208C80.624 61.896 80.576 61.584 80.576 61.296C80.576 60.552 81.032 60.192 81.488 60.192C82.304 60.192 82.472 61.08 83.72 62.4C84.536 63.264 85.616 64.248 87.32 64.248C88.016 64.248 88.808 64.08 89.336 63.624C89.768 63.24 90.152 62.664 90.152 61.896C90.152 58.128 81.248 59.472 81.248 53.88C81.248 50.952 83.936 48.576 87.848 48.576C89.672 48.576 91.568 49.056 92.48 49.92ZM109.912 64.656C110.248 64.848 110.512 65.016 110.512 65.376C110.512 65.784 110.104 66 109.576 66H104.392C103.864 66 103.456 65.784 103.456 65.376C103.456 65.016 103.744 64.848 104.056 64.656C104.536 64.368 104.8 64.032 104.944 63.648C105.064 63.312 105.184 62.784 105.184 61.104V58.152C105.184 56.88 104.584 55.92 103.24 55.92C102.736 55.92 102.136 56.088 101.656 56.568C100.84 57.36 100.576 58.656 100.576 61.104C100.576 62.784 100.696 63.312 100.816 63.648C100.936 64.032 101.224 64.392 101.704 64.656C102.016 64.848 102.304 65.016 102.304 65.376C102.304 65.784 101.896 66 101.368 66H96.2324C95.7044 66 95.3204 65.784 95.3204 65.376C95.3204 65.016 95.5844 64.848 95.8964 64.656C96.3764 64.392 96.6644 64.032 96.7844 63.648C96.9044 63.312 97.0244 62.784 97.0244 61.104V52.896C97.0244 52.2 97.0004 51.696 96.8564 51.312C96.7124 50.928 96.4484 50.712 95.9924 50.496C95.7284 50.376 95.2244 50.28 95.2244 49.872C95.2244 49.536 95.4884 49.32 96.0404 49.2C97.1444 48.936 98.4644 48.552 99.3284 48.216C99.4724 48.168 99.7124 48.072 99.9524 48.072C100.264 48.072 100.576 48.24 100.576 48.888V55.176C100.576 55.296 100.624 55.344 100.672 55.344C100.72 55.344 100.768 55.296 100.816 55.224C101.8 53.832 103.216 53.208 104.704 53.208C105.976 53.208 107.296 53.76 108.064 54.96C108.616 55.776 108.784 56.856 108.784 58.152V61.104C108.784 62.784 108.928 63.312 109.024 63.648C109.144 64.032 109.456 64.392 109.912 64.656ZM118.786 60.024V59.784C118.786 59.688 118.762 59.64 118.714 59.64C118.666 59.64 118.642 59.664 118.57 59.712C117.946 60.096 116.914 60.384 116.074 61.032C115.378 61.536 115.138 62.112 115.138 62.616C115.138 63.456 115.738 64.032 116.626 64.032C117.346 64.032 118.09 63.6 118.474 62.832C118.786 62.184 118.786 61.464 118.786 60.024ZM123.609 64.104C123.97 64.128 124.21 64.272 124.21 64.632C124.21 64.992 123.946 65.328 123.634 65.592C123.106 66.024 122.29 66.264 121.57 66.264C120.538 66.264 119.506 65.736 119.194 64.464C119.17 64.368 119.17 64.32 119.122 64.32C119.098 64.32 119.074 64.344 119.002 64.44C118.042 65.688 116.53 66.264 115.09 66.264C113.194 66.264 111.298 65.232 111.298 63.072C111.298 61.968 111.85 60.84 113.026 60.144C114.202 59.448 115.858 59.016 116.986 58.512C117.754 58.152 118.786 57.552 118.786 56.472C118.786 55.632 118.21 55.056 117.226 55.056C116.674 55.056 116.17 55.224 115.762 55.512C114.442 56.4 114.346 57.768 113.314 57.768C112.521 57.768 112.258 57.384 112.258 56.256C112.258 55.608 112.378 54.864 112.714 54.456C113.506 53.448 116.074 53.208 117.298 53.208C119.77 53.208 122.65 54.336 122.65 57.264C122.65 58.872 122.53 60.312 122.53 61.872C122.53 63.384 122.53 64.056 123.609 64.104ZM139.936 64.656C140.272 64.848 140.536 65.016 140.536 65.376C140.536 65.784 140.128 66 139.6 66H134.416C133.888 66 133.48 65.784 133.48 65.376C133.48 65.016 133.768 64.848 134.08 64.656C134.56 64.368 134.824 64.032 134.968 63.648C135.088 63.312 135.208 62.784 135.208 61.104V58.152C135.208 56.88 134.608 55.92 133.264 55.92C132.76 55.92 132.16 56.088 131.68 56.568C130.864 57.36 130.6 58.656 130.6 61.104C130.6 62.784 130.72 63.312 130.84 63.648C130.96 64.032 131.248 64.392 131.728 64.656C132.04 64.848 132.328 65.016 132.328 65.376C132.328 65.784 131.92 66 131.392 66H126.256C125.728 66 125.344 65.784 125.344 65.376C125.344 65.016 125.608 64.848 125.92 64.656C126.4 64.392 126.688 64.032 126.808 63.648C126.928 63.312 127.048 62.784 127.048 61.104V52.896C127.048 52.2 127.024 51.696 126.88 51.312C126.736 50.928 126.472 50.712 126.016 50.496C125.752 50.376 125.248 50.28 125.248 49.872C125.248 49.536 125.512 49.32 126.064 49.2C127.168 48.936 128.488 48.552 129.352 48.216C129.496 48.168 129.736 48.072 129.976 48.072C130.288 48.072 130.6 48.24 130.6 48.888V55.176C130.6 55.296 130.648 55.344 130.696 55.344C130.744 55.344 130.792 55.296 130.84 55.224C131.824 53.832 133.24 53.208 134.728 53.208C136 53.208 137.32 53.76 138.088 54.96C138.64 55.776 138.808 56.856 138.808 58.152V61.104C138.808 62.784 138.952 63.312 139.048 63.648C139.168 64.032 139.48 64.392 139.936 64.656Z" fill="white"/>
<defs>
<clipPath id="clip0_139_274">
<rect x="20" y="20" width="50" height="50" rx="25" fill="white"/>
</clipPath>
</defs>
</svg>
