<svg width="953" height="952" viewBox="0 0 953 952" fill="none" xmlns="http://www.w3.org/2000/svg">
<g clip-path="url(#clip0_113_25)">
<mask id="mask0_113_25" style="mask-type:luminance" maskUnits="userSpaceOnUse" x="0" y="0" width="953" height="952">
<path d="M952.45 475.833C952.45 213.038 739.412 0 476.617 0C213.821 0 0.783447 213.038 0.783447 475.833C0.783447 738.629 213.821 951.667 476.617 951.667C739.412 951.667 952.45 738.629 952.45 475.833Z" fill="white"/>
</mask>
<g mask="url(#mask0_113_25)">
<path fill-rule="evenodd" clip-rule="evenodd" d="M0.783447 475.833C0.783447 213.038 213.822 0 476.617 0C739.412 0 952.45 213.038 952.45 475.833C952.45 738.628 739.412 951.667 476.617 951.667C213.822 951.667 0.783447 738.628 0.783447 475.833Z" fill="#01E5B4"/>
<path d="M365.909 515.653C365.909 701.961 414.551 793.738 498.986 793.738C563.231 793.738 568.736 768.039 568.736 721.232V543.183H509.999V522.993H774.321V543.183H738.525V801.999H724.762C713.747 786.395 703.65 779.054 677.951 779.054C663.118 779.054 643.042 784.448 619.111 790.879C583.816 800.36 540.146 812.094 492.562 812.094C297.992 812.094 178.682 709.302 178.682 489.955C178.682 267.851 307.17 150.375 495.315 150.375C555.723 150.375 597.75 161.77 628.607 170.138C646.512 174.991 660.655 178.826 672.448 178.826C687.131 178.826 690.802 172.403 697.226 160.471H707.323L714.666 359.63H698.143C646.75 256.838 587.095 168.731 506.331 168.731C415.47 168.731 365.909 253.167 365.909 443.148V515.653Z" fill="#111111"/>
<path fill-rule="evenodd" clip-rule="evenodd" d="M489.512 234.5C499.716 230.887 510.367 229.834 523.249 230.23C537.092 230.657 552.299 234.522 565.539 239.779C578.602 244.964 591.263 252.105 599.26 260.103C604.224 265.065 604.224 273.112 599.26 278.074C594.298 283.036 586.253 283.036 581.289 278.074C576.761 273.546 567.688 267.979 556.161 263.402C544.808 258.895 532.568 255.944 522.468 255.634C511.401 255.293 504.185 256.266 497.995 258.459C491.73 260.674 485.555 264.473 476.983 271.295C474.135 273.564 469.912 278.434 465.091 286.291C460.391 293.95 455.534 303.775 451.145 315.254C442.361 338.246 435.728 367.194 435.728 397.663C435.728 429.924 437.532 460.136 446.013 482.706C450.174 493.774 455.72 502.371 462.902 508.469C469.959 514.465 479.329 518.667 492.32 519.842C501.928 520.713 511.762 515.178 522.381 500.915C532.838 486.866 541.823 467.199 549.825 446.721C553.485 437.355 556.85 428.057 560.038 419.258C560.301 418.537 560.562 417.819 560.821 417.105C564.199 407.787 567.427 398.936 570.495 391.627C573.402 384.709 576.765 377.632 580.785 372.9C582.745 370.594 586.249 367.145 591.5 365.959C597.848 364.522 603.229 367.067 606.727 370.361C610.113 373.553 612.064 377.838 613.28 381.111C614.641 384.751 615.768 389.041 616.731 393.692C618.667 403.032 620.205 415.082 621.413 428.99C623.832 456.881 625.011 493.469 624.995 533.378C624.99 540.957 624.948 548.666 624.856 556.469C641.57 553.281 654.695 549.648 663.22 545.188C700.668 525.584 704.511 488.587 701.898 473.09C700.727 466.171 705.39 459.612 712.311 458.444C719.229 457.277 725.788 461.94 726.957 468.859C730.725 491.189 725.383 541.334 675.005 567.703C662.304 574.351 644.278 578.856 624.407 582.398C622.865 649.561 618.257 720.599 610.589 773.779L610.509 774.336L610.378 774.888C606.765 790.147 597.778 812.896 582.205 832.892C566.542 853.005 543.445 871.252 511.766 874.849C479.632 878.496 453.315 864.32 434.198 846.659C415.179 829.093 402.163 807.138 395.823 791.967L395.621 791.487L395.461 790.99C389.759 773.436 382.604 744.545 379.427 714.176C376.296 684.257 376.77 650.711 388.224 625.279C396.879 606.059 418.253 594.856 440.756 587.429C464.059 579.738 492.776 574.793 521.524 570.799C534.317 569.018 546.922 567.452 559.222 565.921C573.061 564.201 586.508 562.528 599.386 560.66C599.51 551.425 599.576 542.309 599.58 533.37C599.593 493.846 598.423 458.063 596.091 431.186C595.164 420.488 594.07 411.395 592.833 404.13C590.358 410.25 587.694 417.549 584.715 425.766C584.454 426.487 584.188 427.216 583.921 427.954C580.75 436.71 577.281 446.293 573.497 455.973C565.373 476.767 555.385 499.143 542.766 516.09C530.312 532.824 512.963 547.234 490.028 545.156C472.378 543.557 457.913 537.575 446.449 527.843C435.105 518.212 427.445 505.538 422.222 491.647C411.948 464.304 410.315 429.869 410.315 397.663C410.315 363.66 417.679 331.636 427.405 306.183C432.273 293.44 437.803 282.174 443.429 273C448.931 264.028 454.984 256.325 461.156 251.411C470.639 243.864 479.381 238.084 489.512 234.5ZM598.891 586.403C587.018 588.068 574.378 589.646 561.641 591.232C549.321 592.772 536.909 594.321 525.023 595.971C496.437 599.943 469.683 604.647 448.722 611.567C426.957 618.746 415.271 627.113 411.398 635.711C402.812 654.78 401.687 682.695 404.703 711.53C407.642 739.614 414.268 766.489 419.47 782.637C424.755 795.096 435.787 813.526 451.446 827.991C467.203 842.552 486.507 852.135 508.9 849.594C531.74 847 549.229 833.873 562.149 817.281C574.972 800.814 582.526 781.843 585.516 769.57C592.781 718.93 597.266 651.234 598.891 586.403Z" fill="white"/>
<path fill-rule="evenodd" clip-rule="evenodd" d="M482.978 812.07C345.656 809.632 247.178 754.534 203.645 641.743H375.535C392.006 734.542 429.138 784.556 482.978 792.633V812.07Z" fill="#111111"/>
<path fill-rule="evenodd" clip-rule="evenodd" d="M558.521 543.242H510.018V523.05H558.521V543.242Z" fill="#111111"/>
</g>
</g>
<defs>
<clipPath id="clip0_113_25">
<rect width="951.667" height="951.667" fill="white" transform="translate(0.783447)"/>
</clipPath>
</defs>
</svg>
