<svg width="50" height="31" viewBox="0 0 50 31" fill="none" xmlns="http://www.w3.org/2000/svg">
<path d="M14.1761 0.90909H20.2557V21.1932C20.2557 23.0682 19.8343 24.697 18.9915 26.0795C18.1581 27.4621 16.9981 28.5275 15.5114 29.2756C14.0246 30.0237 12.2964 30.3977 10.3267 30.3977C8.57481 30.3977 6.9839 30.09 5.55398 29.4744C4.13352 28.8494 3.00663 27.9025 2.1733 26.6335C1.33996 25.3551 0.92803 23.75 0.9375 21.8182H7.05966C7.0786 22.5852 7.23485 23.2434 7.52841 23.7926C7.83144 24.3324 8.24337 24.7491 8.7642 25.0426C9.29451 25.3267 9.91951 25.4688 10.6392 25.4688C11.3968 25.4688 12.036 25.3078 12.5568 24.9858C13.0871 24.6544 13.4896 24.1714 13.7642 23.5369C14.0388 22.9025 14.1761 22.1212 14.1761 21.1932V0.90909ZM35.6534 30H25.3409V0.90909H35.7386C38.6648 0.90909 41.1837 1.49148 43.2955 2.65625C45.4072 3.81155 47.0313 5.47348 48.1676 7.64205C49.3134 9.81061 49.8864 12.4053 49.8864 15.4261C49.8864 18.4564 49.3134 21.0606 48.1676 23.2386C47.0313 25.4167 45.3977 27.0881 43.267 28.2528C41.1458 29.4176 38.608 30 35.6534 30ZM31.4915 24.7301H35.3977C37.2159 24.7301 38.7453 24.4081 39.9858 23.7642C41.2358 23.1108 42.1733 22.1023 42.7983 20.7386C43.4328 19.3655 43.75 17.5947 43.75 15.4261C43.75 13.2765 43.4328 11.5199 42.7983 10.1562C42.1733 8.79261 41.2405 7.78883 40 7.14489C38.7595 6.50095 37.2301 6.17898 35.4119 6.17898H31.4915V24.7301Z" fill="#206ED7"/>
</svg>
